<?xml version="1.0" encoding="UTF-8" standalone="no"?><!DOCTYPE svg PUBLIC "-//W3C//DTD SVG 1.1//EN" "http://www.w3.org/Graphics/SVG/1.1/DTD/svg11.dtd"><svg width="100%" height="100%" viewBox="0 0 48 48" version="1.1" xmlns="http://www.w3.org/2000/svg" xmlns:xlink="http://www.w3.org/1999/xlink" xml:space="preserve" style="fill-rule:evenodd;clip-rule:evenodd;stroke-linejoin:round;stroke-miterlimit:1.41421;"><path d="M24,0c13.246,0 24,10.754 24,24c0,13.246 -10.754,24 -24,24c-13.246,0 -24,-10.754 -24,-24c0,-13.246 10.754,-24 24,-24Zm-0.001,5.334c10.302,0 18.666,8.364 18.666,18.666c0,10.302 -8.364,18.665 -18.666,18.665c-10.302,0 -18.666,-8.363 -18.666,-18.665c0,-10.302 8.364,-18.666 18.666,-18.666Zm10.391,17.998c0.27,0.001 0.513,0.163 0.616,0.412c0.103,0.249 0.046,0.536 -0.144,0.727c-2.553,2.553 -8.65,8.649 -10.391,10.39c-0.26,0.26 -0.682,0.26 -0.942,0c-1.741,-1.741 -7.838,-7.837 -10.391,-10.39c-0.19,-0.191 -0.247,-0.478 -0.144,-0.727c0.103,-0.249 0.346,-0.412 0.616,-0.412c2.336,0 6.39,0 6.39,0c0,0 0,-7.665 0,-9.999c0,-0.369 0.299,-0.667 0.667,-0.667c1.506,0 5.16,0 6.666,0c0.368,0 0.667,0.298 0.667,0.667l0,9.999l6.39,0Z" style="fill:#fff;fill-opacity:0.501961;"/></svg>