<svg style="display: none;">
    <symbol id="icon-recursion" viewBox="0 0 94 72">
        <path d="M72.2,57.6l-21.6,0l0,7.2l36,0l0,-28.8l-14.4,0l0,21.6Zm-7.2,-36l-14.4,0l0,21.6l-21.6,0l0,7.2l36,0l0,-28.8Zm-57.6,-14.4l0,28.8l36,0l0,-28.8c-12,0 -24,0 -36,0Zm14.4,50.4l0,-14.4l-21.6,0l0,-43.2l50.4,0l0,14.4l21.6,0l0,14.4l21.6,0l0,43.2l-50.4,0l0,-14.4l-21.6,0Z" />
    </symbol>
    <symbol id="icon-sort" viewBox="0 0 72 72">
        <path d="M28.944,57.857c0,0.322 -0.134,0.643 -0.401,0.964l-12.817,12.817c-0.268,0.241 -0.576,0.362 -0.925,0.362c-0.321,0 -0.629,-0.121 -0.924,-0.362l-12.857,-12.857c-0.402,-0.428 -0.495,-0.897 -0.281,-1.406c0.214,-0.536 0.616,-0.804 1.205,-0.804l7.715,0l0,-55.285c0,-0.375 0.12,-0.683 0.361,-0.924c0.241,-0.241 0.549,-0.362 0.924,-0.362l7.715,0c0.375,0 0.683,0.121 0.924,0.362c0.241,0.241 0.361,0.549 0.361,0.924l0,55.285l7.715,0c0.375,0 0.683,0.121 0.924,0.362c0.241,0.241 0.361,0.549 0.361,0.924Zm42.429,5.143l0,7.714c0,0.375 -0.121,0.683 -0.362,0.924c-0.241,0.241 -0.549,0.362 -0.924,0.362l-33.428,0c-0.375,0 -0.683,-0.121 -0.925,-0.362c-0.241,-0.241 -0.361,-0.549 -0.361,-0.924l0,-7.714c0,-0.375 0.12,-0.683 0.361,-0.924c0.242,-0.241 0.55,-0.362 0.925,-0.362l33.428,0c0.375,0 0.683,0.121 0.924,0.362c0.241,0.241 0.362,0.549 0.362,0.924Zm-7.714,-20.571l0,7.714c0,0.375 -0.121,0.683 -0.362,0.924c-0.241,0.241 -0.549,0.362 -0.924,0.362l-25.714,0c-0.375,0 -0.683,-0.121 -0.925,-0.362c-0.241,-0.241 -0.361,-0.549 -0.361,-0.924l0,-7.714c0,-0.375 0.12,-0.683 0.361,-0.925c0.242,-0.241 0.55,-0.361 0.925,-0.361l25.714,0c0.375,0 0.683,0.12 0.924,0.361c0.241,0.242 0.362,0.55 0.362,0.925Zm-7.715,-20.572l0,7.714c0,0.375 -0.12,0.683 -0.361,0.925c-0.241,0.241 -0.549,0.361 -0.924,0.361l-18,0c-0.375,0 -0.683,-0.12 -0.925,-0.361c-0.241,-0.242 -0.361,-0.55 -0.361,-0.925l0,-7.714c0,-0.375 0.12,-0.683 0.361,-0.924c0.242,-0.241 0.55,-0.362 0.925,-0.362l18,0c0.375,0 0.683,0.121 0.924,0.362c0.241,0.241 0.361,0.549 0.361,0.924Zm-7.714,-20.571l0,7.714c0,0.375 -0.121,0.683 -0.362,0.924c-0.241,0.241 -0.549,0.362 -0.924,0.362l-10.285,0c-0.375,0 -0.683,-0.121 -0.925,-0.362c-0.241,-0.241 -0.361,-0.549 -0.361,-0.924l0,-7.714c0,-0.375 0.12,-0.683 0.361,-0.924c0.242,-0.241 0.55,-0.362 0.925,-0.362l10.285,0c0.375,0 0.683,0.121 0.924,0.362c0.241,0.241 0.362,0.549 0.362,0.924Z" style="fill-rule:nonzero;" />
    </symbol>
    <symbol id="icon-hourglass" viewBox="0 0 62 72">
        <path d="M56.714,5.143c0,6.991 -1.426,13.172 -4.279,18.542c-2.852,5.371 -6.422,9.476 -10.707,12.315c4.285,2.839 7.855,6.944 10.707,12.315c2.853,5.37 4.279,11.551 4.279,18.542l3.857,0c0.375,0 0.683,0.121 0.925,0.362c0.241,0.241 0.361,0.549 0.361,0.924l0,2.571c0,0.375 -0.12,0.683 -0.361,0.924c-0.242,0.241 -0.55,0.362 -0.925,0.362l-59.142,0c-0.375,0 -0.683,-0.121 -0.925,-0.362c-0.241,-0.241 -0.361,-0.549 -0.361,-0.924l0,-2.571c0,-0.375 0.12,-0.683 0.361,-0.924c0.242,-0.241 0.55,-0.362 0.925,-0.362l3.857,0c0,-6.991 1.426,-13.172 4.279,-18.542c2.852,-5.371 6.422,-9.476 10.707,-12.315c-4.285,-2.839 -7.855,-6.944 -10.707,-12.315c-2.853,-5.37 -4.279,-11.551 -4.279,-18.542l-3.857,0c-0.375,0 -0.683,-0.121 -0.925,-0.362c-0.241,-0.241 -0.361,-0.549 -0.361,-0.924l0,-2.571c0,-0.375 0.12,-0.683 0.361,-0.924c0.242,-0.241 0.55,-0.362 0.925,-0.362l59.142,0c0.375,0 0.683,0.121 0.925,0.362c0.241,0.241 0.361,0.549 0.361,0.924l0,2.571c0,0.375 -0.12,0.683 -0.361,0.924c-0.242,0.241 -0.55,0.362 -0.925,0.362l-3.857,0Zm-5.143,0l-41.142,0c0,5.518 1.138,10.661 3.415,15.428l34.312,0c2.277,-4.767 3.415,-9.91 3.415,-15.428Zm-2.29,48.857c-1.446,-3.777 -3.395,-7.011 -5.846,-9.703c-2.451,-2.692 -5.056,-4.601 -7.814,-5.726l-9.242,0c-2.758,1.125 -5.363,3.034 -7.814,5.726c-2.451,2.692 -4.4,5.926 -5.846,9.703l36.562,0Z" style="fill-rule:nonzero;"/>
    </symbol>
    <symbol id="icon-binary" viewBox="0 0 118 72">
        <path d="M92.357,1.286c0,-0.71 -0.576,-1.286 -1.286,-1.286c-1.976,0 -5.738,0 -7.714,0c-0.71,0 -1.286,0.576 -1.286,1.286c0,8.844 0,60.584 0,69.428c0,0.71 0.576,1.286 1.286,1.286c1.976,0 5.738,0 7.714,0c0.71,0 1.286,-0.576 1.286,-1.286c0,-8.844 0,-60.584 0,-69.428Zm25.572,0c0,-0.71 -0.576,-1.286 -1.286,-1.286c-1.976,0 -5.738,0 -7.714,0c-0.71,0 -1.286,0.576 -1.286,1.286c0,8.844 0,60.584 0,69.428c0,0.71 0.576,1.286 1.286,1.286c1.976,0 5.738,0 7.714,0c0.71,0 1.286,-0.576 1.286,-1.286c0,-8.844 0,-60.584 0,-69.428Zm-107.572,0c0,-0.71 -0.576,-1.286 -1.286,-1.286c-1.976,0 -5.738,0 -7.714,0c-0.71,0 -1.286,0.576 -1.286,1.286c0,8.844 0,60.584 0,69.428c0,0.71 0.576,1.286 1.286,1.286c1.976,0 5.738,0 7.714,0c0.71,0 1.286,-0.576 1.286,-1.286c0,-8.844 0,-60.584 0,-69.428Zm35.857,-1.286c11.362,0 20.572,9.21 20.572,20.571c0,9.675 0,21.183 0,30.858c0,11.361 -9.21,20.571 -20.572,20.571c0,0 0,0 0,0c-11.361,0 -20.571,-9.21 -20.571,-20.571c0,-9.675 0,-21.183 0,-30.858c0,-11.361 9.21,-20.571 20.571,-20.571c0,0 0,0 0,0Zm10.286,20.571c0,-2.727 -1.084,-5.344 -3.013,-7.273c-1.929,-1.929 -4.545,-3.012 -7.273,-3.012c-2.728,0 -5.344,1.083 -7.273,3.012c-1.929,1.929 -3.012,4.546 -3.012,7.273c0,8.963 0,21.895 0,30.858c0,2.727 1.083,5.344 3.012,7.273c1.929,1.929 4.545,3.012 7.273,3.012c2.728,0 5.344,-1.083 7.273,-3.012c1.929,-1.929 3.013,-4.546 3.013,-7.273c0,-8.963 0,-21.895 0,-30.858Z" />
    </symbol>
    <symbol id="icon-tree" viewBox="0 0 90 72">
        <path d="M45,54c4.967,0 9,4.033 9,9c0,4.967 -4.033,9 -9,9c-4.967,0 -9,-4.033 -9,-9c0,-4.967 4.033,-9 9,-9Zm36,0c4.967,0 9,4.033 9,9c0,4.967 -4.033,9 -9,9c-4.967,0 -9,-4.033 -9,-9c0,-4.967 4.033,-9 9,-9Zm-72,0c4.967,0 9,4.033 9,9c0,4.967 -4.033,9 -9,9c-4.967,0 -9,-4.033 -9,-9c0,-4.967 4.033,-9 9,-9Zm61.45,-11.332l7.258,10.887c-1.614,0.564 -3.04,1.529 -4.158,2.777l-7.258,-10.887c1.614,-0.564 3.04,-1.529 4.158,-2.777Zm-50.9,0c1.118,1.248 2.544,2.213 4.158,2.777l-7.258,10.887c-1.118,-1.248 -2.544,-2.213 -4.158,-2.777l7.258,-10.887Zm36,0c1.118,1.248 2.544,2.213 4.158,2.777l-7.258,10.887c-1.118,-1.248 -2.544,-2.213 -4.158,-2.777l7.258,-10.887Zm7.45,-15.668c4.967,0 9,4.033 9,9c0,4.967 -4.033,9 -9,9c-4.967,0 -9,-4.033 -9,-9c0,-4.967 4.033,-9 9,-9Zm-36,0c4.967,0 9,4.033 9,9c0,4.967 -4.033,9 -9,9c-4.967,0 -9,-4.033 -9,-9c0,-4.967 4.033,-9 9,-9Zm25.45,-11.332l7.258,10.887c-1.614,0.564 -3.04,1.529 -4.158,2.777l-7.258,-10.887c1.614,-0.564 3.04,-1.529 4.158,-2.777Zm-14.9,0c1.118,1.248 2.544,2.213 4.158,2.777l-7.258,10.887c-1.118,-1.248 -2.544,-2.213 -4.158,-2.777l7.258,-10.887Zm7.45,-15.668c4.967,0 9,4.033 9,9c0,4.967 -4.033,9 -9,9c-4.967,0 -9,-4.033 -9,-9c0,-4.967 4.033,-9 9,-9Z" />
    </symbol>
    <symbol id="icon-cubes" viewBox="0 0 88 72">
        <path d="M26,65.571l15.429,-7.714l0,-12.616l-15.429,6.589l0,13.741Zm-2.571,-18.241l16.232,-6.951l-16.232,-6.95l-16.233,6.95l16.233,6.951Zm43.714,18.241l15.428,-7.714l0,-12.616l-15.428,6.589l0,13.741Zm-2.572,-18.241l16.233,-6.951l-16.233,-6.95l-16.232,6.95l16.232,6.951Zm-18,-11.772l15.429,-6.629l0,-10.688l-15.429,6.589l0,10.728Zm-2.571,-15.228l17.719,-7.593l-17.719,-7.594l-17.719,7.594l17.719,7.593Zm43.714,20.813l0,16.714c0,0.964 -0.254,1.862 -0.763,2.692c-0.509,0.83 -1.205,1.46 -2.089,1.889l-18,9c-0.67,0.375 -1.433,0.562 -2.291,0.562c-0.857,0 -1.62,-0.187 -2.29,-0.562l-18,-9c-0.134,-0.054 -0.227,-0.108 -0.281,-0.161c-0.054,0.053 -0.147,0.107 -0.281,0.161l-18,9c-0.67,0.375 -1.433,0.562 -2.29,0.562c-0.858,0 -1.621,-0.187 -2.291,-0.562l-18,-9c-0.884,-0.429 -1.58,-1.059 -2.089,-1.889c-0.509,-0.83 -0.763,-1.728 -0.763,-2.692l0,-16.714c0,-1.018 0.288,-1.955 0.864,-2.813c0.575,-0.857 1.332,-1.5 2.27,-1.928l17.437,-7.473l0,-16.072c0,-1.018 0.288,-1.955 0.864,-2.812c0.576,-0.857 1.333,-1.5 2.27,-1.929l18,-7.714c0.616,-0.268 1.286,-0.402 2.009,-0.402c0.723,0 1.393,0.134 2.009,0.402l18,7.714c0.937,0.429 1.694,1.072 2.27,1.929c0.576,0.857 0.864,1.794 0.864,2.812l0,16.072l17.437,7.473c0.965,0.428 1.728,1.071 2.291,1.928c0.562,0.858 0.843,1.795 0.843,2.813Z" style="fill-rule:nonzero;"/>
    </symbol>
    <symbol id="icon-resume" viewBox="0 0 62 72">
        <path d="M59.125,15.268c0.75,0.75 1.393,1.768 1.929,3.053c0.535,1.286 0.803,2.465 0.803,3.536l0,46.286c0,1.071 -0.375,1.982 -1.125,2.732c-0.75,0.75 -1.661,1.125 -2.732,1.125l-54,0c-1.071,0 -1.982,-0.375 -2.732,-1.125c-0.75,-0.75 -1.125,-1.661 -1.125,-2.732l0,-64.286c0,-1.071 0.375,-1.982 1.125,-2.732c0.75,-0.75 1.661,-1.125 2.732,-1.125l36,0c1.071,0 2.25,0.268 3.536,0.804c1.285,0.535 2.303,1.178 3.053,1.928l12.536,12.536Zm-17.839,-9.804l0,15.107l15.107,0c-0.268,-0.776 -0.563,-1.325 -0.884,-1.647l-12.576,-12.576c-0.321,-0.321 -0.871,-0.616 -1.647,-0.884Zm15.428,61.393l0,-41.143l-16.714,0c-1.071,0 -1.982,-0.375 -2.732,-1.125c-0.75,-0.75 -1.125,-1.66 -1.125,-2.732l0,-16.714l-30.857,0l0,61.714l51.428,0Zm-41.143,-34.714c0,-0.375 0.121,-0.683 0.362,-0.924c0.241,-0.241 0.549,-0.362 0.924,-0.362l28.286,0c0.375,0 0.683,0.121 0.924,0.362c0.241,0.241 0.362,0.549 0.362,0.924l0,2.571c0,0.375 -0.121,0.683 -0.362,0.924c-0.241,0.241 -0.549,0.362 -0.924,0.362l-28.286,0c-0.375,0 -0.683,-0.121 -0.924,-0.362c-0.241,-0.241 -0.362,-0.549 -0.362,-0.924l0,-2.571Zm29.572,9c0.375,0 0.683,0.12 0.924,0.361c0.241,0.242 0.362,0.55 0.362,0.925l0,2.571c0,0.375 -0.121,0.683 -0.362,0.924c-0.241,0.241 -0.549,0.362 -0.924,0.362l-28.286,0c-0.375,0 -0.683,-0.121 -0.924,-0.362c-0.241,-0.241 -0.362,-0.549 -0.362,-0.924l0,-2.571c0,-0.375 0.121,-0.683 0.362,-0.925c0.241,-0.241 0.549,-0.361 0.924,-0.361l28.286,0Zm0,10.286c0.375,0 0.683,0.12 0.924,0.361c0.241,0.241 0.362,0.549 0.362,0.924l0,2.572c0,0.375 -0.121,0.683 -0.362,0.924c-0.241,0.241 -0.549,0.361 -0.924,0.361l-28.286,0c-0.375,0 -0.683,-0.12 -0.924,-0.361c-0.241,-0.241 -0.362,-0.549 -0.362,-0.924l0,-2.572c0,-0.375 0.121,-0.683 0.362,-0.924c0.241,-0.241 0.549,-0.361 0.924,-0.361l28.286,0Z" style="fill-rule:nonzero;"/>
    </symbol>
    <symbol id="icon-handshake" viewBox="0 0 114 72">
        <path d="M9.518,44.317c1.319,0 2.242,-0.528 2.77,-1.583c0.527,-1.055 0.527,-2.111 0,-3.166c-0.528,-1.055 -1.451,-1.582 -2.77,-1.582c-1.319,0 -2.242,0.527 -2.77,1.582c-0.527,1.055 -0.527,2.111 0,3.166c0.528,1.055 1.451,1.583 2.77,1.583Zm72.855,-2.869c-0.33,-0.429 -0.964,-1.253 -1.904,-2.473c-0.94,-1.22 -1.624,-2.111 -2.053,-2.671c-0.428,-0.561 -1.055,-1.368 -1.879,-2.424c-0.824,-1.055 -1.525,-1.929 -2.102,-2.621c-0.577,-0.692 -1.245,-1.467 -2.003,-2.325c-0.759,-0.857 -1.501,-1.665 -2.226,-2.423l-6.183,6.924c-2.736,3.1 -6.174,4.617 -10.312,4.551c-4.138,-0.066 -7.526,-1.682 -10.164,-4.848c-1.88,-2.275 -2.811,-4.88 -2.795,-7.814c0.017,-2.935 0.981,-5.523 2.894,-7.766l8.754,-10.188c-0.725,-0.363 -1.566,-0.635 -2.522,-0.816c-0.957,-0.182 -1.74,-0.281 -2.35,-0.297c-0.61,-0.017 -1.541,-0.009 -2.794,0.024c-1.253,0.033 -2.061,0.05 -2.424,0.05c-3.033,0 -5.638,1.088 -7.814,3.264l-7.815,7.815l-7.667,0l0,26.907c0.165,0 0.512,-0.009 1.039,-0.025c0.528,-0.017 0.89,-0.017 1.088,0c0.198,0.016 0.52,0.049 0.965,0.099c0.445,0.049 0.783,0.123 1.014,0.222c0.23,0.099 0.519,0.239 0.865,0.421c0.346,0.181 0.651,0.404 0.915,0.667l14.69,14.443c3.792,3.66 7.534,5.49 11.227,5.49c2.572,0 4.633,-0.775 6.183,-2.325c1.879,0.66 3.734,0.528 5.564,-0.395c1.83,-0.924 3.026,-2.325 3.586,-4.205c2.44,0.198 4.534,-0.527 6.282,-2.176c0.659,-0.593 1.253,-1.343 1.78,-2.25c0.528,-0.907 0.759,-1.74 0.693,-2.498c0.329,0.33 1.038,0.495 2.126,0.495c1.418,0 2.688,-0.347 3.809,-1.039c1.121,-0.692 1.937,-1.566 2.448,-2.621c0.511,-1.056 0.709,-2.234 0.594,-3.537c-0.116,-1.302 -0.619,-2.514 -1.509,-3.635Zm7.864,2.869l4.749,0l0,-25.324l-4.6,0l-7.766,-8.903c-2.176,-2.506 -4.962,-3.759 -8.358,-3.759l-8.26,0c-2.935,0 -5.342,1.105 -7.221,3.314l-10.338,12.019c-0.923,1.088 -1.385,2.324 -1.385,3.709c0,1.385 0.446,2.622 1.336,3.71c1.418,1.681 3.231,2.539 5.441,2.572c2.209,0.033 4.039,-0.775 5.49,-2.424l9.545,-10.782c0.825,-0.759 1.707,-1.113 2.647,-1.064c0.939,0.05 1.714,0.495 2.324,1.336c0.61,0.841 0.75,1.772 0.421,2.794c0.527,0.627 1.451,1.665 2.769,3.116c1.319,1.451 2.309,2.572 2.968,3.364c0.956,1.187 2.316,2.926 4.081,5.218c1.764,2.291 2.827,3.684 3.19,4.179c1.714,2.176 2.704,4.484 2.967,6.925Zm14.245,0c1.319,0 2.242,-0.528 2.77,-1.583c0.527,-1.055 0.527,-2.111 0,-3.166c-0.528,-1.055 -1.451,-1.582 -2.77,-1.582c-1.319,0 -2.242,0.527 -2.77,1.582c-0.527,1.055 -0.527,2.111 0,3.166c0.528,1.055 1.451,1.583 2.77,1.583Zm9.496,-28.49l0,31.655c0,0.857 -0.313,1.599 -0.939,2.226c-0.627,0.626 -1.369,0.939 -2.226,0.939l-21.466,0c-0.89,2.144 -2.242,3.9 -4.056,5.268c-1.813,1.368 -3.874,2.217 -6.182,2.547c-1.088,1.583 -2.416,2.927 -3.982,4.031c-1.566,1.105 -3.256,1.855 -5.069,2.251c-1.385,1.747 -3.108,3.091 -5.169,4.031c-2.061,0.939 -4.179,1.343 -6.356,1.211c-1.978,1.122 -4.055,1.773 -6.232,1.954c-2.176,0.182 -4.278,-0.049 -6.306,-0.692c-2.028,-0.643 -3.957,-1.525 -5.787,-2.646c-1.83,-1.122 -3.536,-2.457 -5.119,-4.007l-14.195,-13.948l-17.707,0c-0.857,0 -1.599,-0.313 -2.226,-0.939c-0.626,-0.627 -0.939,-1.369 -0.939,-2.226l0,-33.237c0,-0.858 0.313,-1.6 0.939,-2.226c0.627,-0.627 1.369,-0.94 2.226,-0.94l20.823,0c0.462,-0.462 1.236,-1.253 2.325,-2.374c1.088,-1.121 1.871,-1.912 2.349,-2.374c0.478,-0.462 1.203,-1.121 2.176,-1.978c0.973,-0.858 1.805,-1.476 2.498,-1.855c0.692,-0.379 1.533,-0.8 2.522,-1.261c0.99,-0.462 2.012,-0.784 3.067,-0.965c1.055,-0.181 2.176,-0.272 3.363,-0.272l5.787,0c3.265,0 6.249,0.923 8.952,2.77c2.704,-1.847 5.688,-2.77 8.953,-2.77l8.26,0c1.154,0 2.258,0.099 3.314,0.297c1.055,0.198 1.986,0.437 2.794,0.717c0.808,0.28 1.657,0.717 2.547,1.311c0.891,0.593 1.624,1.104 2.201,1.533c0.577,0.429 1.286,1.08 2.127,1.954c0.841,0.873 1.484,1.566 1.929,2.077c0.445,0.511 1.121,1.302 2.028,2.374c0.907,1.072 1.591,1.871 2.052,2.399l17.559,0c0.857,0 1.599,0.313 2.226,0.94c0.626,0.626 0.939,1.368 0.939,2.225Z" style="fill-rule:nonzero;"/>
    </symbol>
    <symbol id="icon-down-circle" viewBox="0 0 18 18">
        <path d="M9,0c4.967,0 9,4.033 9,9c0,4.967 -4.033,9 -9,9c-4.967,0 -9,-4.033 -9,-9c0,-4.967 4.033,-9 9,-9Zm0,2c3.863,0 6.999,3.137 6.999,7c0,3.863 -3.136,7 -6.999,7c-3.864,0 -7,-3.137 -7,-7c0,-3.863 3.136,-7 7,-7Zm3.896,6.75c0.102,0 0.193,0.061 0.231,0.154c0.039,0.093 0.018,0.201 -0.054,0.272c-0.957,0.958 -3.244,3.244 -3.896,3.897c-0.098,0.097 -0.256,0.097 -0.354,0c-0.652,-0.653 -2.939,-2.939 -3.896,-3.897c-0.072,-0.071 -0.093,-0.179 -0.054,-0.272c0.038,-0.093 0.129,-0.154 0.231,-0.154c0.876,0 2.396,0 2.396,0c0,0 0,-2.875 0,-3.75c0,-0.138 0.112,-0.25 0.25,-0.25c0.565,0 1.935,0 2.5,0c0.138,0 0.25,0.112 0.25,0.25l0,3.75l2.396,0Z" fill-rule= "evenodd" />
    </symbol>
    <symbol id="icon-clock-1" viewBox="0 0 15 15">
        <path d="M7.5,0a7.5,7.5 0 1 0 0.01,0ZM7.5,1a6.5,6.5 0 1 1 -0.01,0ZM7.532,2.001c0.052,0.005 0.103,0.014 0.152,0.034c0.138,0.054 0.246,0.17 0.292,0.31c0.016,0.051 0.022,0.102 0.024,0.155l0,3.134c0.194,-0.337 0.379,-0.679 0.584,-1.009c0.018,-0.026 0.018,-0.025 0.038,-0.05c0.064,-0.07 0.141,-0.124 0.234,-0.152c0.249,-0.075 0.522,0.06 0.613,0.305c0.022,0.058 0.032,0.121 0.031,0.184c-0.002,0.075 -0.021,0.145 -0.052,0.212c-0.482,0.9 -0.994,1.785 -1.531,2.652c-0.055,0.078 -0.124,0.14 -0.211,0.18c-0.236,0.106 -0.521,0.01 -0.645,-0.217c-0.035,-0.065 -0.053,-0.135 -0.06,-0.208c-0.052,-1.687 -0.053,-3.376 0,-5.063c0.005,-0.052 0.015,-0.103 0.034,-0.152c0.051,-0.128 0.154,-0.231 0.281,-0.281c0.039,-0.016 0.08,-0.025 0.121,-0.031c0.032,-0.003 0.063,-0.004 0.095,-0.003Z" />
    </symbol>
    <symbol id="icon-clock-2" viewBox="0 0 15 15">
        <path d="M7.5,0a7.5,7.5 0 1 0 0.01,0ZM7.5,1a6.5,6.5 0 1 1 -0.01,0ZM7.532,2.001c0.052,0.005 0.103,0.014 0.152,0.034c0.138,0.054 0.246,0.17 0.292,0.31c0.016,0.051 0.023,0.102 0.024,0.155l0,4.134c0.625,-0.361 1.24,-0.741 1.876,-1.082c0.029,-0.013 0.029,-0.013 0.058,-0.024c0.091,-0.029 0.185,-0.037 0.279,-0.015c0.253,0.06 0.422,0.313 0.378,0.57c-0.01,0.062 -0.032,0.122 -0.065,0.176c-0.039,0.064 -0.09,0.114 -0.151,0.157c-0.867,0.538 -1.752,1.049 -2.652,1.531c-0.066,0.031 -0.134,0.05 -0.207,0.053c-0.188,0.005 -0.367,-0.098 -0.456,-0.264c-0.035,-0.064 -0.052,-0.133 -0.059,-0.205c-0.052,-1.687 -0.053,-3.376 0,-5.063c0.005,-0.052 0.015,-0.103 0.035,-0.152c0.05,-0.128 0.153,-0.231 0.28,-0.281c0.04,-0.016 0.08,-0.025 0.122,-0.031c0.031,-0.003 0.062,-0.004 0.094,-0.003Z" />
    </symbol>
    <symbol id="icon-clock-3" viewBox="0 0 15 15">
        <path d="M7.5,0a7.5,7.5 0 1 0 0.01,0ZM7.5,1a6.5,6.5 0 1 1 -0.01,0ZM7.532,2.001c0.053,0.005 0.103,0.014 0.153,0.034c0.137,0.054 0.245,0.17 0.291,0.31c0.017,0.051 0.023,0.102 0.025,0.155l0,4.5c0.843,0 1.688,-0.026 2.531,0.001c0.031,0.003 0.031,0.003 0.062,0.008c0.073,0.016 0.14,0.042 0.201,0.086c0.05,0.037 0.094,0.084 0.128,0.137c0.139,0.22 0.082,0.519 -0.128,0.672c-0.078,0.057 -0.168,0.086 -0.263,0.095c-1.02,0.032 -2.042,0.032 -3.063,0c-0.052,-0.005 -0.103,-0.015 -0.152,-0.034c-0.128,-0.051 -0.231,-0.154 -0.281,-0.281c-0.02,-0.049 -0.029,-0.1 -0.034,-0.153c-0.053,-1.687 -0.053,-3.376 0,-5.063c0.005,-0.052 0.014,-0.103 0.034,-0.152c0.05,-0.128 0.153,-0.231 0.281,-0.281c0.039,-0.016 0.079,-0.025 0.121,-0.031c0.032,-0.003 0.062,-0.004 0.094,-0.003Z" />
    </symbol>
    <symbol id="icon-clock-4" viewBox="0 0 15 15">
        <path d="M7.5,0a7.5,7.5 0 1 0 0.01,0ZM7.5,1a6.5,6.5 0 1 1 -0.01,0ZM7.537,2.001c0.059,0.007 0.117,0.019 0.172,0.044c0.131,0.06 0.231,0.176 0.272,0.314c0.013,0.046 0.018,0.093 0.02,0.141l0,4.711l2.348,1.356c0.03,0.019 0.03,0.018 0.059,0.04c0.093,0.078 0.159,0.178 0.182,0.298c0.044,0.228 -0.081,0.463 -0.294,0.555c-0.055,0.023 -0.114,0.036 -0.173,0.039c-0.085,0.004 -0.165,-0.015 -0.243,-0.049c-0.904,-0.48 -1.791,-0.993 -2.659,-1.536c-0.095,-0.069 -0.168,-0.161 -0.201,-0.276c-0.009,-0.034 -0.014,-0.068 -0.018,-0.103c-0.058,-1.678 -0.001,-3.357 -0.001,-5.035c0.002,-0.06 0.01,-0.118 0.031,-0.175c0.046,-0.123 0.141,-0.225 0.261,-0.28c0.044,-0.02 0.089,-0.031 0.137,-0.04c0.036,-0.004 0.07,-0.005 0.107,-0.004Z" />
    </symbol>
    <symbol id="icon-clock-5" viewBox="0 0 15 15">
        <path d="M7.5,0a7.5,7.5 0 1 0 0.01,0ZM7.5,1a6.5,6.5 0 1 1 -0.01,0ZM7.558,2.003c0.051,0.008 0.099,0.019 0.147,0.041c0.129,0.057 0.229,0.17 0.272,0.305c0.016,0.049 0.021,0.099 0.023,0.151l0,4.866l1.433,2.482c0.018,0.034 0.018,0.033 0.033,0.069c0.038,0.111 0.046,0.225 0.009,0.338c-0.016,0.048 -0.04,0.094 -0.07,0.136c-0.146,0.203 -0.431,0.266 -0.649,0.143c-0.069,-0.038 -0.122,-0.091 -0.168,-0.154c-0.54,-0.857 -1.014,-1.753 -1.521,-2.63c-0.036,-0.069 -0.057,-0.136 -0.065,-0.213c-0.063,-1.678 -0.002,-3.358 -0.002,-5.037c0.002,-0.052 0.008,-0.102 0.023,-0.151c0.043,-0.135 0.144,-0.248 0.273,-0.305c0.059,-0.027 0.12,-0.039 0.185,-0.044c0.038,0 0.038,0 0.077,0.003Z" />
    </symbol>
    <symbol id="icon-clock-6" viewBox="0 0 15 15">
        <path d="M7.5,0a7.5,7.5 0 1 0 0.01,0ZM7.5,1a6.5,6.5 0 1 1 -0.01,0ZM7.54,2.001c0.052,0.007 0.102,0.017 0.152,0.037c0.121,0.05 0.22,0.149 0.27,0.271c0.021,0.049 0.031,0.099 0.037,0.152c0.105,2.677 0.001,5.359 0.001,8.039c-0.003,0.08 -0.018,0.155 -0.054,0.227c-0.024,0.047 -0.055,0.089 -0.092,0.126c-0.182,0.182 -0.483,0.194 -0.678,0.027c-0.103,-0.088 -0.158,-0.208 -0.174,-0.341c-0.105,-2.678 -0.002,-5.359 -0.002,-8.039c0.002,-0.053 0.008,-0.104 0.025,-0.155c0.041,-0.125 0.131,-0.231 0.248,-0.291c0.048,-0.024 0.097,-0.038 0.149,-0.048c0.04,-0.005 0.077,-0.006 0.118,-0.005Z" />
    </symbol>
    <symbol id="icon-clock-7" viewBox="0 0 15 15">
        <path d="M7.5,0a7.5,7.5 0 1 0 0.01,0ZM7.5,1a6.5,6.5 0 1 1 -0.01,0ZM7.558,2.003c0.051,0.008 0.1,0.019 0.147,0.041c0.117,0.052 0.211,0.15 0.259,0.269c0.02,0.048 0.029,0.097 0.035,0.149c0.065,1.678 0.002,3.358 0.002,5.038c-0.003,0.077 -0.019,0.146 -0.05,0.217c-0.473,0.895 -1.011,1.754 -1.517,2.631c-0.07,0.11 -0.168,0.194 -0.295,0.23c-0.254,0.074 -0.53,-0.072 -0.613,-0.323c-0.02,-0.061 -0.028,-0.125 -0.024,-0.189c0.005,-0.078 0.029,-0.149 0.066,-0.218l1.433,-2.482l0,-4.866c0.001,-0.039 0.001,-0.038 0.006,-0.077c0.009,-0.05 0.023,-0.099 0.046,-0.145c0.057,-0.115 0.158,-0.205 0.279,-0.249c0.049,-0.017 0.098,-0.025 0.15,-0.029c0.038,0 0.037,0 0.076,0.003Z" />
    </symbol>
    <symbol id="icon-clock-8" viewBox="0 0 15 15">
        <path d="M7.5,0a7.5,7.5 0 1 0 0.01,0ZM7.5,1a6.5,6.5 0 1 1 -0.01,0ZM7.537,2.001c0.047,0.005 0.093,0.014 0.139,0.03c0.123,0.046 0.225,0.141 0.28,0.261c0.025,0.055 0.037,0.112 0.044,0.172c0.06,1.689 0.059,3.382 0,5.071c-0.004,0.035 -0.009,0.069 -0.018,0.103c-0.033,0.115 -0.106,0.207 -0.202,0.276c-0.857,0.536 -1.751,1.013 -2.627,1.519c-0.075,0.04 -0.153,0.065 -0.238,0.067c-0.259,0.006 -0.485,-0.195 -0.51,-0.453c-0.006,-0.059 -0.001,-0.119 0.015,-0.177c0.035,-0.13 0.12,-0.232 0.233,-0.303l2.348,-1.356l0,-4.711c0.001,-0.036 0.001,-0.036 0.005,-0.071c0.009,-0.048 0.02,-0.093 0.04,-0.137c0.05,-0.109 0.138,-0.197 0.247,-0.247c0.044,-0.02 0.089,-0.031 0.137,-0.04c0.036,-0.004 0.07,-0.005 0.107,-0.004Z" />
    </symbol>
    <symbol id="icon-clock-9" viewBox="0 0 15 15">
        <path d="M7.5,0a7.5,7.5 0 1 0 0.01,0ZM7.5,1a6.5,6.5 0 1 1 -0.01,0ZM7.532,2.001c0.052,0.005 0.103,0.014 0.152,0.034c0.128,0.05 0.231,0.153 0.281,0.281c0.02,0.049 0.029,0.1 0.034,0.152c0.053,1.687 0.053,3.376 0,5.063c-0.005,0.053 -0.014,0.104 -0.034,0.153c-0.05,0.127 -0.153,0.23 -0.281,0.281c-0.049,0.019 -0.1,0.029 -0.152,0.034c-1.021,0.032 -2.043,0.032 -3.063,0c-0.106,-0.01 -0.205,-0.045 -0.288,-0.114c-0.04,-0.033 -0.075,-0.073 -0.103,-0.117c-0.121,-0.191 -0.097,-0.446 0.058,-0.61c0.043,-0.046 0.094,-0.084 0.151,-0.111c0.068,-0.031 0.139,-0.045 0.213,-0.047l2.5,0c0,-1.511 -0.046,-3.022 0.001,-4.532c0.003,-0.031 0.003,-0.03 0.008,-0.062c0.012,-0.051 0.027,-0.101 0.053,-0.147c0.078,-0.142 0.217,-0.23 0.375,-0.255c0.032,-0.003 0.063,-0.004 0.095,-0.003Z" />
    </symbol>
    <symbol id="icon-clock-10" viewBox="0 0 15 15">
        <path d="M7.5,0a7.5,7.5 0 1 0 0.01,0ZM7.5,1a6.5,6.5 0 1 1 -0.01,0ZM7.532,2.001c0.052,0.005 0.103,0.014 0.152,0.034c0.128,0.05 0.231,0.153 0.281,0.281c0.02,0.049 0.029,0.1 0.034,0.152c0.053,1.687 0.052,3.376 0,5.063c-0.006,0.072 -0.023,0.141 -0.058,0.205c-0.089,0.166 -0.268,0.269 -0.456,0.264c-0.073,-0.003 -0.141,-0.022 -0.207,-0.053c-0.9,-0.482 -1.785,-0.993 -2.652,-1.531c-0.061,-0.043 -0.113,-0.093 -0.151,-0.157c-0.033,-0.054 -0.055,-0.114 -0.066,-0.176c-0.037,-0.222 0.084,-0.448 0.29,-0.54c0.048,-0.021 0.099,-0.035 0.151,-0.04c0.107,-0.012 0.209,0.014 0.302,0.064l1.848,1.067c0,-1.389 -0.042,-2.778 0.001,-4.166c0.003,-0.031 0.003,-0.03 0.008,-0.062c0.035,-0.156 0.132,-0.289 0.279,-0.359c0.048,-0.022 0.097,-0.035 0.15,-0.043c0.031,-0.003 0.062,-0.004 0.094,-0.003Z" />
    </symbol>
    <symbol id="icon-clock-11" viewBox="0 0 15 15">
        <path d="M7.5,0a7.5,7.5 0 1 0 0.01,0ZM7.5,1a6.5,6.5 0 1 1 -0.01,0ZM7.532,2.001c0.053,0.005 0.103,0.014 0.153,0.034c0.127,0.05 0.23,0.153 0.281,0.281c0.019,0.049 0.029,0.1 0.034,0.152c0.053,1.687 0.052,3.376 0,5.063c-0.009,0.094 -0.038,0.183 -0.093,0.261c-0.151,0.209 -0.447,0.269 -0.667,0.134c-0.063,-0.038 -0.113,-0.09 -0.156,-0.15c-0.538,-0.867 -1.049,-1.752 -1.531,-2.652c-0.044,-0.097 -0.063,-0.2 -0.045,-0.306c0.008,-0.051 0.025,-0.101 0.05,-0.148c0.104,-0.2 0.337,-0.306 0.557,-0.255c0.061,0.014 0.119,0.04 0.171,0.076c0.061,0.043 0.109,0.098 0.148,0.161l0.567,0.982c0,-1.055 -0.033,-2.111 0.001,-3.166c0.003,-0.031 0.003,-0.03 0.008,-0.062c0.011,-0.051 0.027,-0.1 0.052,-0.147c0.079,-0.142 0.218,-0.23 0.376,-0.255c0.032,-0.003 0.062,-0.004 0.094,-0.003Z" />
    </symbol>
    <symbol id="icon-clock-12" viewBox="0 0 15 15">
        <path d="M7.5,0a7.5,7.5 0 1 0 0.01,0ZM7.5,1a6.5,6.5 0 1 1 -0.01,0ZM8,7.531c-0.01,0.106 -0.045,0.205 -0.114,0.288c-0.173,0.209 -0.494,0.24 -0.704,0.066c-0.048,-0.04 -0.089,-0.089 -0.119,-0.144c-0.036,-0.066 -0.054,-0.136 -0.061,-0.21c-0.053,-1.687 -0.053,-3.376 0,-5.063c0.01,-0.105 0.045,-0.204 0.114,-0.287c0.173,-0.21 0.494,-0.24 0.704,-0.066c0.048,0.04 0.089,0.089 0.119,0.144c0.036,0.065 0.054,0.136 0.061,0.209c0.053,1.687 0.053,3.376 0,5.063Z" />
    </symbol>
</svg>
